<svg width="160" height="40" viewBox="0 0 160 40" fill="none" xmlns="http://www.w3.org/2000/svg">
<g id="TileDB-logo">
<path id="Union" fill-rule="evenodd" clip-rule="evenodd" d="M0 40H9.67843V35.408H4.50196V4.592H9.67843V0H0V40ZM20.5569 18.328H28.7216V13.728H20.5569V5.79199H15.6157V13.728H11.2157V18.328H15.6157V29.032C15.6157 29.7124 15.7472 30.3861 16.0027 31.0146C16.2582 31.6431 16.6327 32.2141 17.1047 32.6948C17.5768 33.1755 18.1371 33.5566 18.7537 33.8163C19.3703 34.0759 20.031 34.209 20.698 34.208H28.7216V29.6H20.5569V18.328ZM35.8039 13.728H44.6745V29.616H49.1216V34.208H35.4274V29.616H39.7333V18.328H35.8039V13.728ZM44.6745 5.79199H39.5294V10.384H44.6745V5.79199ZM54.4314 5.79199H63.3019V29.616H67.7882V34.208H54.102V29.616H58.3608V10.384H54.4314V5.79199ZM82.651 13.264C81.2572 13.2291 79.871 13.4826 78.5759 14.0092C77.2808 14.5358 76.1038 15.3245 75.1158 16.3278C74.1277 17.3311 73.3492 18.5282 72.8272 19.8468C72.3052 21.1654 72.0505 22.5782 72.0784 24C72.0784 30.592 76.5725 34.672 83.2157 34.672C84.8319 34.7271 86.4423 34.4487 87.9505 33.8535C89.4586 33.2583 90.8333 32.3584 91.9921 31.208L88.9725 28.008C87.4039 29.504 85.7804 30.104 83.1686 30.104C80.1176 30.104 77.898 28.568 77.2706 26.192H92.6823C92.9399 25.2687 93.0641 24.3119 93.051 23.352C93.051 17.856 88.8627 13.264 82.651 13.264ZM82.5961 17.856C85.4274 17.856 87.451 19.568 87.8039 21.688H77.349C77.8274 19.464 79.8274 17.856 82.5961 17.856ZM100.267 4.592H95.0902V0H104.769V40H95.0902V35.408H100.267V4.592Z" fill="#001F75"/>
<path id="Union_2" fill-rule="evenodd" clip-rule="evenodd" d="M128.627 6.904C129.974 7.66927 131.129 8.74273 132 10.04C132.894 11.4152 133.537 12.9437 133.898 14.552C134.307 16.3134 134.509 18.118 134.502 19.928C134.508 21.7393 134.314 23.5454 133.922 25.312C133.572 26.929 132.934 28.4667 132.039 29.848C131.174 31.1482 130.022 32.2226 128.674 32.984C127.144 33.7989 125.435 34.201 123.71 34.152H114.886V5.728H123.702C125.415 5.68509 127.111 6.08993 128.627 6.904ZM119.82 29.6H123.137C127.059 29.6 129.412 26.544 129.388 19.92C129.388 13.672 126.596 10.32 123.035 10.32H119.82V29.6ZM156.766 17.1539C156.051 18.2854 155.019 19.1712 153.804 19.696C156.98 20.84 158.753 23.152 158.753 26.28C158.753 30.92 155.396 34.208 148.729 34.208H139.231V5.792H148.086C154.267 5.792 157.812 9.04 157.812 13.352C157.845 14.6976 157.481 16.0224 156.766 17.1539ZM144.196 29.6H148.902C152.157 29.6 153.725 28.064 153.733 25.872C153.733 23.552 152.118 22.056 148.745 22.056H144.196V29.6ZM144.18 17.44H148.588V17.456C151.278 17.456 152.612 15.952 152.596 13.936C152.596 11.744 151.137 10.4 148.235 10.4H144.18V17.44Z" fill="#4C9DFF"/>
</g>
</svg>
